<?xml version="1.0" encoding="UTF-8"?>
<svg xmlns="http://www.w3.org/2000/svg" width="77.898" height="46.647" viewBox="0 0 77.898 46.647">
  <g transform="translate(0.026 0.005)">
    <path d="M275.067,36.845l-.642-.431h0a2.68,2.68,0,0,0-1.991-.387h-.022a2.656,2.656,0,0,0-1.659,1.128L243.4,78.1h0a2.662,2.662,0,0,0-.387,1.98h0v.036h0a2.633,2.633,0,0,0,1.128,1.648l.642.42a2.645,2.645,0,0,0,3.672-.752L275.808,40.5h0a2.689,2.689,0,0,0,.387-1.991A2.6,2.6,0,0,0,275.067,36.845Zm-.442,2.874-3.252,4.866L268.7,42.816l3.252-4.855h0a1.213,1.213,0,0,1,.774-.52h0a1.224,1.224,0,0,1,.918.177l.642.431h0a1.213,1.213,0,0,1,.52.774,1.189,1.189,0,0,1-.178.9Z" transform="translate(-220.653 -35.98)"></path>
    <path d="M17.648,176.6a1.569,1.569,0,0,1-.985-.343L2.705,165.227a1.588,1.588,0,0,1,0-2.5l13.947-11.044a1.6,1.6,0,0,1,1.991,2.5L6.278,163.977l12.354,9.763a1.6,1.6,0,0,1-.984,2.857Z" transform="translate(-2.12 -140.64)"></path>
    <path d="M658.935,176.558a1.6,1.6,0,0,1-.983-2.857l12.353-9.763-12.365-9.8a1.6,1.6,0,0,1,1.98-2.5l13.946,11.056a1.588,1.588,0,0,1,0,2.5L659.919,176.2A1.581,1.581,0,0,1,658.935,176.558Z" transform="translate(-596.603 -140.601)"></path>
    <path d="M337.343,104.984c.873-2.4,1.593-3.108,3.993-3.993-2.4-.873-3.1-1.593-3.993-3.992-.873,2.4-1.593,3.108-3.993,3.993C335.751,101.876,336.458,102.585,337.343,104.984Z" transform="translate(-302.66 -91.346)" fill="#1c96d4"></path>
    <path d="M202.263,194.185c1.526-4.159,2.754-5.386,6.913-6.913-4.159-1.526-5.386-2.754-6.913-6.913-1.526,4.159-2.754,5.386-6.913,6.913C199.509,188.788,200.747,190.026,202.263,194.185Z" transform="translate(-177.456 -166.977)" fill="#c61a41"></path>
    <path d="M512.057,300.414c1.106-3.019,2-3.9,5.007-5.007-3.019-1.106-3.9-2-5.007-5.007-1.106,3.019-2,3.9-5.007,5.007C510.055,296.51,510.951,297.41,512.057,300.414Z" transform="translate(-460.254 -266.813)" fill="#eeb034"></path>
  </g>
</svg>
